<mxfile host="app.diagrams.net" modified="2022-05-03T14:10:55.847Z" agent="5.0 (Windows NT 10.0; Win64; x64) AppleWebKit/537.36 (KHTML, like Gecko) Chrome/100.0.4896.127 Safari/537.36" etag="vJsha1rhtCH3HkLZXICJ" version="16.6.4" type="github">
  <diagram id="4YwVzGs6rVlEmf7iypRt" name="第 1 页">
    <mxGraphModel dx="1673" dy="820" grid="1" gridSize="10" guides="1" tooltips="1" connect="1" arrows="1" fold="1" page="1" pageScale="1" pageWidth="1169" pageHeight="827" math="0" shadow="0">
      <root>
        <mxCell id="0" />
        <mxCell id="1" parent="0" />
        <mxCell id="OXdLSGmj_vhWJyE9Hy_o-1" value="" style="rounded=0;whiteSpace=wrap;html=1;dashed=1;sketch=1;fillColor=#e1d5e7;strokeColor=#9673a6;" vertex="1" parent="1">
          <mxGeometry x="180" y="250" width="510" height="300" as="geometry" />
        </mxCell>
        <mxCell id="OXdLSGmj_vhWJyE9Hy_o-5" value="" style="group;sketch=1;rounded=0;arcSize=0;" vertex="1" connectable="0" parent="1">
          <mxGeometry x="198.75" y="260" width="160" height="263" as="geometry" />
        </mxCell>
        <mxCell id="OXdLSGmj_vhWJyE9Hy_o-4" value="" style="rounded=1;whiteSpace=wrap;html=1;fillColor=#e1d5e7;strokeColor=#9673a6;" vertex="1" parent="OXdLSGmj_vhWJyE9Hy_o-5">
          <mxGeometry width="160" height="260" as="geometry" />
        </mxCell>
        <mxCell id="OXdLSGmj_vhWJyE9Hy_o-2" value="" style="shape=trapezoid;perimeter=trapezoidPerimeter;whiteSpace=wrap;html=1;fixedSize=1;rounded=1;shadow=0;glass=0;sketch=1;fillStyle=solid;fontSize=28;fillColor=#dae8fc;rotation=-180;size=40;strokeColor=#6c8ebf;align=center;arcSize=36;" vertex="1" parent="OXdLSGmj_vhWJyE9Hy_o-5">
          <mxGeometry x="21.25" y="40" width="117.5" height="82.5" as="geometry" />
        </mxCell>
        <mxCell id="OXdLSGmj_vhWJyE9Hy_o-3" value="" style="shape=trapezoid;perimeter=trapezoidPerimeter;whiteSpace=wrap;html=1;fixedSize=1;rounded=1;shadow=0;glass=0;sketch=1;fillStyle=solid;fontSize=28;fillColor=#f8cecc;rotation=0;size=40;strokeColor=#b85450;align=center;arcSize=36;" vertex="1" parent="OXdLSGmj_vhWJyE9Hy_o-5">
          <mxGeometry x="21.25" y="150" width="117.5" height="82.5" as="geometry" />
        </mxCell>
        <mxCell id="OXdLSGmj_vhWJyE9Hy_o-18" value="&lt;font style=&quot;font-size: 14px&quot;&gt;Encoder&lt;/font&gt;" style="text;html=1;strokeColor=none;fillColor=none;align=center;verticalAlign=middle;whiteSpace=wrap;rounded=0;dashed=1;sketch=1;fontSize=20;" vertex="1" parent="OXdLSGmj_vhWJyE9Hy_o-5">
          <mxGeometry x="50" y="184" width="60" height="30" as="geometry" />
        </mxCell>
        <mxCell id="OXdLSGmj_vhWJyE9Hy_o-19" value="&lt;font style=&quot;font-size: 14px&quot;&gt;Decoder&lt;/font&gt;" style="text;html=1;strokeColor=none;fillColor=none;align=center;verticalAlign=middle;whiteSpace=wrap;rounded=0;dashed=1;sketch=1;fontSize=20;" vertex="1" parent="OXdLSGmj_vhWJyE9Hy_o-5">
          <mxGeometry x="50" y="60" width="60" height="30" as="geometry" />
        </mxCell>
        <mxCell id="OXdLSGmj_vhWJyE9Hy_o-7" value="" style="group;rotation=90;sketch=1;rounded=1;" vertex="1" connectable="0" parent="1">
          <mxGeometry x="475" y="315" width="160" height="250" as="geometry" />
        </mxCell>
        <mxCell id="OXdLSGmj_vhWJyE9Hy_o-8" value="" style="rounded=0;whiteSpace=wrap;html=1;rotation=90;fillColor=#e1d5e7;strokeColor=#9673a6;" vertex="1" parent="OXdLSGmj_vhWJyE9Hy_o-7">
          <mxGeometry x="-5" y="-4.8076923076923075" width="160" height="250" as="geometry" />
        </mxCell>
        <mxCell id="OXdLSGmj_vhWJyE9Hy_o-9" value="" style="shape=trapezoid;perimeter=trapezoidPerimeter;whiteSpace=wrap;html=1;fixedSize=1;rounded=1;shadow=0;glass=0;sketch=1;fillStyle=solid;fontSize=28;fillColor=#dae8fc;rotation=-90;size=40;strokeColor=#6c8ebf;align=center;arcSize=36;" vertex="1" parent="OXdLSGmj_vhWJyE9Hy_o-7">
          <mxGeometry x="65" y="80.76923076923077" width="117.5" height="79.32692307692308" as="geometry" />
        </mxCell>
        <mxCell id="OXdLSGmj_vhWJyE9Hy_o-10" value="" style="shape=trapezoid;perimeter=trapezoidPerimeter;whiteSpace=wrap;html=1;fixedSize=1;rounded=1;shadow=0;glass=0;sketch=1;fillStyle=solid;fontSize=28;fillColor=#f8cecc;rotation=90;size=40;strokeColor=#b85450;align=center;arcSize=36;" vertex="1" parent="OXdLSGmj_vhWJyE9Hy_o-7">
          <mxGeometry x="-45" y="80.76923076923077" width="117.5" height="79.32692307692308" as="geometry" />
        </mxCell>
        <mxCell id="OXdLSGmj_vhWJyE9Hy_o-16" value="&lt;font style=&quot;font-size: 14px&quot;&gt;Encoder&lt;/font&gt;" style="text;html=1;strokeColor=none;fillColor=none;align=center;verticalAlign=middle;whiteSpace=wrap;rounded=0;dashed=1;sketch=1;fontSize=20;" vertex="1" parent="OXdLSGmj_vhWJyE9Hy_o-7">
          <mxGeometry x="-16" y="109" width="60" height="30" as="geometry" />
        </mxCell>
        <mxCell id="OXdLSGmj_vhWJyE9Hy_o-17" value="&lt;font style=&quot;font-size: 14px&quot;&gt;Decoder&lt;/font&gt;" style="text;html=1;strokeColor=none;fillColor=none;align=center;verticalAlign=middle;whiteSpace=wrap;rounded=0;dashed=1;sketch=1;fontSize=20;" vertex="1" parent="OXdLSGmj_vhWJyE9Hy_o-7">
          <mxGeometry x="93.75" y="105.19" width="60" height="30" as="geometry" />
        </mxCell>
        <mxCell id="OXdLSGmj_vhWJyE9Hy_o-12" value="&lt;b&gt;&lt;font style=&quot;font-size: 20px&quot;&gt;A&lt;/font&gt;&lt;/b&gt;" style="text;html=1;strokeColor=none;fillColor=none;align=center;verticalAlign=middle;whiteSpace=wrap;rounded=0;dashed=1;sketch=1;" vertex="1" parent="1">
          <mxGeometry x="180" y="520" width="60" height="30" as="geometry" />
        </mxCell>
        <mxCell id="OXdLSGmj_vhWJyE9Hy_o-14" style="edgeStyle=orthogonalEdgeStyle;rounded=0;orthogonalLoop=1;jettySize=auto;html=1;fontSize=20;entryX=0.5;entryY=1;entryDx=0;entryDy=0;strokeWidth=2;strokeColor=#FFFFFF;" edge="1" parent="1" source="OXdLSGmj_vhWJyE9Hy_o-13" target="OXdLSGmj_vhWJyE9Hy_o-3">
          <mxGeometry relative="1" as="geometry">
            <mxPoint x="260" y="520" as="targetPoint" />
          </mxGeometry>
        </mxCell>
        <mxCell id="OXdLSGmj_vhWJyE9Hy_o-15" style="edgeStyle=orthogonalEdgeStyle;rounded=0;orthogonalLoop=1;jettySize=auto;html=1;entryX=0.75;entryY=1;entryDx=0;entryDy=0;fontSize=20;strokeWidth=2;strokeColor=#FFFFFF;" edge="1" parent="1" source="OXdLSGmj_vhWJyE9Hy_o-13" target="OXdLSGmj_vhWJyE9Hy_o-10">
          <mxGeometry relative="1" as="geometry" />
        </mxCell>
        <mxCell id="OXdLSGmj_vhWJyE9Hy_o-13" value="&lt;h1&gt;&lt;font style=&quot;font-size: 35px&quot;&gt;X&lt;/font&gt;&lt;/h1&gt;" style="rounded=1;whiteSpace=wrap;html=1;shadow=0;glass=0;fillStyle=solid;fillColor=#f5f5f5;strokeColor=#666666;fontColor=#333333;sketch=1;" vertex="1" parent="1">
          <mxGeometry x="240" y="600" width="110" height="100" as="geometry" />
        </mxCell>
        <mxCell id="OXdLSGmj_vhWJyE9Hy_o-21" style="edgeStyle=orthogonalEdgeStyle;rounded=0;orthogonalLoop=1;jettySize=auto;html=1;entryX=0.25;entryY=1;entryDx=0;entryDy=0;fontSize=14;strokeWidth=2;strokeColor=#FFFFFF;" edge="1" parent="1" source="OXdLSGmj_vhWJyE9Hy_o-2" target="OXdLSGmj_vhWJyE9Hy_o-10">
          <mxGeometry relative="1" as="geometry" />
        </mxCell>
        <mxCell id="OXdLSGmj_vhWJyE9Hy_o-22" value="&lt;b&gt;&lt;font style=&quot;font-size: 22px&quot; color=&quot;#ffffff&quot;&gt;G&lt;sub&gt;a&lt;/sub&gt;(X)&lt;/font&gt;&lt;/b&gt;" style="edgeLabel;html=1;align=center;verticalAlign=middle;resizable=0;points=[];fontSize=14;" vertex="1" connectable="0" parent="OXdLSGmj_vhWJyE9Hy_o-21">
          <mxGeometry x="-0.2788" y="-3" relative="1" as="geometry">
            <mxPoint as="offset" />
          </mxGeometry>
        </mxCell>
        <mxCell id="OXdLSGmj_vhWJyE9Hy_o-23" value="" style="rounded=0;whiteSpace=wrap;html=1;dashed=1;sketch=1;fillColor=#d5e8d4;strokeColor=#82b366;" vertex="1" parent="1">
          <mxGeometry x="730" y="250" width="660" height="300" as="geometry" />
        </mxCell>
        <mxCell id="OXdLSGmj_vhWJyE9Hy_o-24" value="" style="group;sketch=1;rounded=0;arcSize=0;rotation=90;" vertex="1" connectable="0" parent="1">
          <mxGeometry x="830" y="282" width="160" height="263" as="geometry" />
        </mxCell>
        <mxCell id="OXdLSGmj_vhWJyE9Hy_o-25" value="" style="rounded=1;whiteSpace=wrap;html=1;rotation=90;fillColor=#d5e8d4;strokeColor=#82b366;" vertex="1" parent="OXdLSGmj_vhWJyE9Hy_o-24">
          <mxGeometry x="1" y="1" width="160" height="260" as="geometry" />
        </mxCell>
        <mxCell id="OXdLSGmj_vhWJyE9Hy_o-26" value="" style="shape=trapezoid;perimeter=trapezoidPerimeter;whiteSpace=wrap;html=1;fixedSize=1;rounded=1;shadow=0;glass=0;sketch=1;fillStyle=solid;fontSize=28;fillColor=#dae8fc;rotation=-90;size=40;strokeColor=#6c8ebf;align=center;arcSize=36;" vertex="1" parent="OXdLSGmj_vhWJyE9Hy_o-24">
          <mxGeometry x="71" y="91" width="117.5" height="82.5" as="geometry" />
        </mxCell>
        <mxCell id="OXdLSGmj_vhWJyE9Hy_o-27" value="" style="shape=trapezoid;perimeter=trapezoidPerimeter;whiteSpace=wrap;html=1;fixedSize=1;rounded=1;shadow=0;glass=0;sketch=1;fillStyle=solid;fontSize=28;fillColor=#f8cecc;rotation=90;size=40;strokeColor=#b85450;align=center;arcSize=36;" vertex="1" parent="OXdLSGmj_vhWJyE9Hy_o-24">
          <mxGeometry x="-38" y="91" width="117.5" height="82.5" as="geometry" />
        </mxCell>
        <mxCell id="OXdLSGmj_vhWJyE9Hy_o-28" value="&lt;font style=&quot;font-size: 14px&quot;&gt;Encoder&lt;/font&gt;" style="text;html=1;strokeColor=none;fillColor=none;align=center;verticalAlign=middle;whiteSpace=wrap;rounded=0;dashed=1;sketch=1;fontSize=20;rotation=0;" vertex="1" parent="OXdLSGmj_vhWJyE9Hy_o-24">
          <mxGeometry x="-9.25" y="117.25" width="60" height="30" as="geometry" />
        </mxCell>
        <mxCell id="OXdLSGmj_vhWJyE9Hy_o-29" value="&lt;font style=&quot;font-size: 14px&quot;&gt;Decoder&lt;/font&gt;" style="text;html=1;strokeColor=none;fillColor=none;align=center;verticalAlign=middle;whiteSpace=wrap;rounded=0;dashed=1;sketch=1;fontSize=20;rotation=0;" vertex="1" parent="OXdLSGmj_vhWJyE9Hy_o-24">
          <mxGeometry x="100" y="117" width="60" height="30" as="geometry" />
        </mxCell>
        <mxCell id="OXdLSGmj_vhWJyE9Hy_o-30" value="" style="group;rotation=90;sketch=1;rounded=1;" vertex="1" connectable="0" parent="1">
          <mxGeometry x="1185" y="305" width="160" height="240" as="geometry" />
        </mxCell>
        <mxCell id="OXdLSGmj_vhWJyE9Hy_o-31" value="" style="rounded=0;whiteSpace=wrap;html=1;rotation=90;fillColor=#d5e8d4;strokeColor=#82b366;" vertex="1" parent="OXdLSGmj_vhWJyE9Hy_o-30">
          <mxGeometry x="-10" y="-9.415384615384614" width="160" height="240" as="geometry" />
        </mxCell>
        <mxCell id="OXdLSGmj_vhWJyE9Hy_o-32" value="" style="shape=trapezoid;perimeter=trapezoidPerimeter;whiteSpace=wrap;html=1;fixedSize=1;rounded=1;shadow=0;glass=0;sketch=1;fillStyle=solid;fontSize=28;fillColor=#dae8fc;rotation=-90;size=40;strokeColor=#6c8ebf;align=center;arcSize=36;" vertex="1" parent="OXdLSGmj_vhWJyE9Hy_o-30">
          <mxGeometry x="60" y="72.73846153846154" width="117.5" height="76.15384615384616" as="geometry" />
        </mxCell>
        <mxCell id="OXdLSGmj_vhWJyE9Hy_o-33" value="" style="shape=trapezoid;perimeter=trapezoidPerimeter;whiteSpace=wrap;html=1;fixedSize=1;rounded=1;shadow=0;glass=0;sketch=1;fillStyle=solid;fontSize=28;fillColor=#f8cecc;rotation=90;size=40;strokeColor=#b85450;align=center;arcSize=36;" vertex="1" parent="OXdLSGmj_vhWJyE9Hy_o-30">
          <mxGeometry x="-50" y="72.73846153846154" width="117.5" height="76.15384615384616" as="geometry" />
        </mxCell>
        <mxCell id="OXdLSGmj_vhWJyE9Hy_o-34" value="&lt;font style=&quot;font-size: 14px&quot;&gt;Encoder&lt;/font&gt;" style="text;html=1;strokeColor=none;fillColor=none;align=center;verticalAlign=middle;whiteSpace=wrap;rounded=0;dashed=1;sketch=1;fontSize=20;" vertex="1" parent="OXdLSGmj_vhWJyE9Hy_o-30">
          <mxGeometry x="-21" y="99.84" width="60" height="28.799999999999997" as="geometry" />
        </mxCell>
        <mxCell id="OXdLSGmj_vhWJyE9Hy_o-35" value="&lt;font style=&quot;font-size: 14px&quot;&gt;Decoder&lt;/font&gt;" style="text;html=1;strokeColor=none;fillColor=none;align=center;verticalAlign=middle;whiteSpace=wrap;rounded=0;dashed=1;sketch=1;fontSize=20;" vertex="1" parent="OXdLSGmj_vhWJyE9Hy_o-30">
          <mxGeometry x="88.75" y="96.1824" width="60" height="28.799999999999997" as="geometry" />
        </mxCell>
        <mxCell id="OXdLSGmj_vhWJyE9Hy_o-36" value="&lt;span style=&quot;font-size: 20px&quot;&gt;&lt;b&gt;B&lt;/b&gt;&lt;/span&gt;" style="text;html=1;strokeColor=none;fillColor=none;align=center;verticalAlign=middle;whiteSpace=wrap;rounded=0;dashed=1;sketch=1;" vertex="1" parent="1">
          <mxGeometry x="800" y="520" width="60" height="30" as="geometry" />
        </mxCell>
        <mxCell id="OXdLSGmj_vhWJyE9Hy_o-37" style="edgeStyle=orthogonalEdgeStyle;rounded=0;orthogonalLoop=1;jettySize=auto;html=1;entryX=0.25;entryY=1;entryDx=0;entryDy=0;fontSize=14;strokeWidth=2;strokeColor=#FFFFFF;" edge="1" parent="1" source="OXdLSGmj_vhWJyE9Hy_o-26" target="OXdLSGmj_vhWJyE9Hy_o-33">
          <mxGeometry relative="1" as="geometry" />
        </mxCell>
        <mxCell id="OXdLSGmj_vhWJyE9Hy_o-38" value="&lt;b&gt;&lt;font color=&quot;#ffffff&quot;&gt;&lt;font style=&quot;font-size: 22px&quot;&gt;G&lt;/font&gt;&lt;font&gt;&lt;span style=&quot;font-size: 18.3333px&quot;&gt;b(&lt;/span&gt;&lt;span style=&quot;font-size: 22px&quot;&gt;G&lt;sub&gt;a&lt;/sub&gt;(X))&lt;/span&gt;&lt;/font&gt;&lt;/font&gt;&lt;/b&gt;" style="edgeLabel;html=1;align=center;verticalAlign=middle;resizable=0;points=[];fontSize=14;" vertex="1" connectable="0" parent="OXdLSGmj_vhWJyE9Hy_o-37">
          <mxGeometry x="-0.2788" y="-3" relative="1" as="geometry">
            <mxPoint as="offset" />
          </mxGeometry>
        </mxCell>
        <mxCell id="OXdLSGmj_vhWJyE9Hy_o-41" style="edgeStyle=orthogonalEdgeStyle;rounded=0;orthogonalLoop=1;jettySize=auto;html=1;entryX=0.25;entryY=1;entryDx=0;entryDy=0;fontSize=22;strokeWidth=2;strokeColor=#FFFFFF;" edge="1" parent="1" source="OXdLSGmj_vhWJyE9Hy_o-2" target="OXdLSGmj_vhWJyE9Hy_o-27">
          <mxGeometry relative="1" as="geometry">
            <Array as="points">
              <mxPoint x="730" y="341" />
              <mxPoint x="730" y="385" />
            </Array>
          </mxGeometry>
        </mxCell>
        <mxCell id="OXdLSGmj_vhWJyE9Hy_o-44" value="&lt;h1&gt;&lt;span style=&quot;font-size: 35px&quot;&gt;α&lt;sub&gt;1&lt;/sub&gt;&lt;/span&gt;&lt;/h1&gt;" style="rounded=1;whiteSpace=wrap;html=1;shadow=0;glass=0;fillStyle=solid;fillColor=#f5f5f5;strokeColor=#666666;fontColor=#333333;sketch=1;" vertex="1" parent="1">
          <mxGeometry x="660" y="600" width="110" height="100" as="geometry" />
        </mxCell>
        <mxCell id="OXdLSGmj_vhWJyE9Hy_o-45" style="edgeStyle=orthogonalEdgeStyle;rounded=0;orthogonalLoop=1;jettySize=auto;html=1;entryX=0.5;entryY=0;entryDx=0;entryDy=0;fontSize=22;strokeWidth=2;strokeColor=#FFFFFF;" edge="1" parent="1" source="OXdLSGmj_vhWJyE9Hy_o-17" target="OXdLSGmj_vhWJyE9Hy_o-44">
          <mxGeometry relative="1" as="geometry" />
        </mxCell>
        <mxCell id="OXdLSGmj_vhWJyE9Hy_o-47" style="edgeStyle=orthogonalEdgeStyle;rounded=0;orthogonalLoop=1;jettySize=auto;html=1;entryX=0.5;entryY=1;entryDx=0;entryDy=0;fontSize=22;strokeWidth=2;strokeColor=#FFFFFF;" edge="1" parent="1" source="OXdLSGmj_vhWJyE9Hy_o-46" target="OXdLSGmj_vhWJyE9Hy_o-33">
          <mxGeometry relative="1" as="geometry">
            <Array as="points">
              <mxPoint x="1090" y="540" />
              <mxPoint x="1130" y="540" />
              <mxPoint x="1130" y="420" />
            </Array>
          </mxGeometry>
        </mxCell>
        <mxCell id="OXdLSGmj_vhWJyE9Hy_o-46" value="&lt;h1&gt;&lt;span style=&quot;font-size: 35px&quot;&gt;X_hat&lt;/span&gt;&lt;/h1&gt;" style="rounded=1;whiteSpace=wrap;html=1;shadow=0;glass=0;fillStyle=solid;fillColor=#f5f5f5;strokeColor=#666666;fontColor=#333333;sketch=1;" vertex="1" parent="1">
          <mxGeometry x="1030" y="600" width="110" height="100" as="geometry" />
        </mxCell>
        <mxCell id="OXdLSGmj_vhWJyE9Hy_o-48" value="&lt;h1&gt;&lt;span style=&quot;font-size: 35px&quot;&gt;α&lt;sub&gt;1&lt;/sub&gt;&lt;/span&gt;&lt;/h1&gt;" style="rounded=1;whiteSpace=wrap;html=1;shadow=0;glass=0;fillStyle=solid;fillColor=#f5f5f5;strokeColor=#666666;fontColor=#333333;sketch=1;" vertex="1" parent="1">
          <mxGeometry x="1390" y="600" width="110" height="100" as="geometry" />
        </mxCell>
        <mxCell id="OXdLSGmj_vhWJyE9Hy_o-49" style="edgeStyle=orthogonalEdgeStyle;rounded=0;orthogonalLoop=1;jettySize=auto;html=1;fontSize=22;strokeWidth=2;strokeColor=#FFFFFF;" edge="1" parent="1" source="OXdLSGmj_vhWJyE9Hy_o-31" target="OXdLSGmj_vhWJyE9Hy_o-48">
          <mxGeometry relative="1" as="geometry" />
        </mxCell>
      </root>
    </mxGraphModel>
  </diagram>
</mxfile>
